<svg xmlns="http://www.w3.org/2000/svg" style="display:none">
  <!-- Logo -->
  <symbol id="icon-logo" viewBox="0 0 24 24" fill="currentColor">
    <path d="M21.742 21.75l-7.563-11.179 7.056-8.321h-2.456l-5.691 6.714-4.54-6.714H2.359l7.29 10.776L2.25 21.75h2.456l6.035-7.118 4.818 7.118h6.191-.008zM7.739 3.818L18.81 20.182h-2.447L5.29 3.818h2.447z"/>
  </symbol>

  <!-- Inicio -->
  <symbol id="icon-home" viewBox="0 0 24 24" fill="currentColor">
    <path d="M22.46 10.46L12 1 1.54 10.46A1 1 0 0 0 2 12h2v9a1 1 0 0 0 1 1h5v-6h4v6h5a1 1 0 0 0 1-1v-9h2a1 1 0 0 0 .66-1.73z"/>
  </symbol>

  <!-- Explorar / Buscar -->
  <symbol id="icon-search" viewBox="0 0 24 24" fill="currentColor">
    <path d="M21 20l-5.6-5.6a7 7 0 10-1.4 1.4L20 21zM5 10a5 5 0 1110 0A5 5 0 015 10z"/>
  </symbol>

  <!-- Notificaciones -->
  <symbol id="icon-bell" viewBox="0 0 24 24" fill="currentColor">
    <path d="M18 8a6 6 0 00-12 0c0 7-3 9-3 9h18s-3-2-3-9zM13.73 21a2 2 0 01-3.46 0"/>
  </symbol>

  <!-- Mensajes -->
  <symbol id="icon-mail" viewBox="0 0 24 24" fill="currentColor">
    <path d="M4 4h16a2 2 0 012 2v12a2 2 0 01-2 2H4a2 2 0 01-2-2V6a2 2 0 012-2zm8 7l8-5H4l8 5zm0 2l-8-5v10h16V8l-8 5z"/>
  </symbol>

  <!-- Guardados -->
  <symbol id="icon-bookmark" viewBox="0 0 24 24" fill="currentColor">
    <path d="M6 2a2 2 0 00-2 2v18l8-5 8 5V4a2 2 0 00-2-2H6z"/>
  </symbol>

  <!-- Perfil -->
  <symbol id="icon-user" viewBox="0 0 24 24" fill="currentColor">
    <path d="M12 12a5 5 0 100-10 5 5 0 000 10zm0 2c-5 0-9 2.24-9 5v3h18v-3c0-2.76-4-5-9-5z"/>
  </symbol>

  <!-- Más opciones -->
  <symbol id="icon-more" viewBox="0 0 24 24" fill="currentColor">
    <circle cx="12" cy="5" r="2"/>
    <circle cx="12" cy="12" r="2"/>
    <circle cx="12" cy="19" r="2"/>
  </symbol>
  <symbol id="icon-more-horizontal" viewBox="0 0 24 24" fill="currentColor">
    <circle cx="5" cy="12" r="1.5" />
    <circle cx="12" cy="12" r="1.5" />
    <circle cx="19" cy="12" r="1.5" />
  </symbol>
<!-- Tweet (botón de multimedia) -->
  <symbol id="icon-multimedia" viewBox="0 0 24 24" fill="currentColor">
    <path d="M3 5.5C3 4.119 4.119 3 5.5 3h13C19.881 3 21 4.119 21 5.5v13c0 1.381-1.119 2.5-2.5 2.5h-13C4.119 21 3 19.881 3 18.5v-13zM5.5 5c-.276 0-.5.224-.5.5v9.086l3-3 3 3 5-5 3 3V5.5c0-.276-.224-.5-.5-.5h-13zM19 15.414l-3-3-5 5-3-3-3 3V18.5c0 .276.224.5.5.5h13c.276 0 .5-.224.5-.5v-3.086zM9.75 7C8.784 7 8 7.784 8 8.75s.784 1.75 1.75 1.75 1.75-.784 1.75-1.75S10.716 7 9.75 7z"/>
  </symbol>

  <!-- Tweet (botón de gif) -->
 <symbol symbol id="icon-gif" viewBox="0 0 24 24" fill="currentColor">
    <path d="M3 5.5C3 4.119 4.12 3 5.5 3h13C19.88 3 21 4.119 21 5.5v13c0 1.381-1.12 2.5-2.5 2.5h-13C4.12 21 3 19.881 3 18.5v-13zM5.5 5c-.28 0-.5.224-.5.5v13c0 .276.22.5.5.5h13c.28 0 .5-.224.5-.5v-13c0-.276-.22-.5-.5-.5h-13zM18 10.711V9.25h-3.74v5.5h1.44v-1.719h1.7V11.57h-1.7v-.859H18zM11.79 9.25h1.44v5.5h-1.44v-5.5zm-3.07 1.375c.34 0 .77.172 1.02.43l1.03-.86c-.51-.601-1.28-.945-2.05-.945C7.19 9.25 6 10.453 6 12s1.19 2.75 2.72 2.75c.85 0 1.54-.344 2.05-.945v-2.149H8.38v1.032H9.4v.515c-.17.086-.42.172-.68.172-.76 0-1.36-.602-1.36-1.375 0-.688.6-1.375 1.36-1.375z"/>
  </symbol>
  <!-- Tweet (botón de grok) -->
  <symbol id="icon-grok" viewBox="0 0 33 32" fill="currentColor">
    <path d="M12.745 20.54l10.97-8.19c.539-.4 1.307-.244 1.564.38 1.349 3.288.746 7.241-1.938 9.955-2.683 2.714-6.417 3.31-9.83 1.954l-3.728 1.745c5.347 3.697 11.84 2.782 15.898-1.324 3.219-3.255 4.216-7.692 3.284-11.693l.008.009c-1.351-5.878.332-8.227 3.782-13.031L33 0l-4.54 4.59v-.014L12.743 20.544m-2.263 1.987c-3.837-3.707-3.175-9.446.1-12.755 2.42-2.449 6.388-3.448 9.852-1.979l3.72-1.737c-.67-.49-1.53-1.017-2.515-1.387-4.455-1.854-9.789-.931-13.41 2.728-3.483 3.523-4.579 8.94-2.697 13.561 1.405 3.454-.899 5.898-3.22 8.364C1.49 30.2.666 31.074 0 32l10.478-9.466" />
  </symbol>
  <!-- Tweet (botón de encuesta) -->
 <symbol id="icon-encuesta" viewBox="0 0 24 24" fill="currentColor">
  <path d="M6 5c-1.1 0-2 .895-2 2s.9 2 2 2 2-.895 2-2-.9-2-2-2zM2 7c0-2.209 1.79-4 4-4s4 1.791 4 4-1.79 4-4 4-4-1.791-4-4zm20 1H12V6h10v2zM6 15c-1.1 0-2 .895-2 2s.9 2 2 2 2-.895 2-2-.9-2-2-2zm-4 2c0-2.209 1.79-4 4-4s4 1.791 4 4-1.79 4-4 4-4-1.791-4-4zm20 1H12v-2h10v2zM7 7c0 .552-.45 1-1 1s-1-.448-1-1 .45-1 1-1 1 .448 1 1z" />   
 </symbol>
 <!-- Tweet (botón de emoji) -->
 <symbol id="icon-emoji" viewBox="0 0 24 24" fill="currentColor">
  <path d="M8 9.5C8 8.119 8.672 7 9.5 7S11 8.119 11 9.5 10.328 12 9.5 12 8 10.881 8 9.5zm6.5 2.5c.828 0 1.5-1.119 1.5-2.5S15.328 7 14.5 7 13 8.119 13 9.5s.672 2.5 1.5 2.5zM12 16c-2.224 0-3.021-2.227-3.051-2.316l-1.897.633c.05.15 1.271 3.684 4.949 3.684s4.898-3.533 4.949-3.684l-1.896-.638c-.033.095-.83 2.322-3.053 2.322zm10.25-4.001c0 5.652-4.598 10.25-10.25 10.25S1.75 17.652 1.75 12 6.348 1.75 12 1.75 22.25 6.348 22.25 12zm-2 0c0-4.549-3.701-8.25-8.25-8.25S3.75 7.451 3.75 12s3.701 8.25 8.25 8.25 8.25-3.701 8.25-8.25z" />
 </symbol>
 <!-- Tweet (botón de programacion) -->
 <symbol id="icon-programacion" viewBox="0 0 24 24" fill="currentColor">
  <path d="M6 3V2h2v1h6V2h2v1h1.5C18.88 3 20 4.119 20 5.5v2h-2v-2c0-.276-.22-.5-.5-.5H16v1h-2V5H8v1H6V5H4.5c-.28 0-.5.224-.5.5v12c0 .276.22.5.5.5h3v2h-3C3.12 20 2 18.881 2 17.5v-12C2 4.119 3.12 3 4.5 3H6zm9.5 8c-2.49 0-4.5 2.015-4.5 4.5s2.01 4.5 4.5 4.5 4.5-2.015 4.5-4.5-2.01-4.5-4.5-4.5zM9 15.5C9 11.91 11.91 9 15.5 9s6.5 2.91 6.5 6.5-2.91 6.5-6.5 6.5S9 19.09 9 15.5zm5.5-2.5h2v2.086l1.71 1.707-1.42 1.414-2.29-2.293V13z" />
 </symbol>
 <!-- Tweet (botón de ubicacion) -->
 <symbol id="icon-ubicacion" viewBox="0 0 24 24" fill="currentColor">
  <path d="M12 7c-1.93 0-3.5 1.57-3.5 3.5S10.07 14 12 14s3.5-1.57 3.5-3.5S13.93 7 12 7zm0 5c-.827 0-1.5-.673-1.5-1.5S11.173 9 12 9s1.5.673 1.5 1.5S12.827 12 12 12zm0-10c-4.687 0-8.5 3.813-8.5 8.5 0 5.967 7.621 11.116 7.945 11.332l.555.37.555-.37c.324-.216 7.945-5.365 7.945-11.332C20.5 5.813 16.687 2 12 2zm0 17.77c-1.665-1.241-6.5-5.196-6.5-9.27C5.5 6.916 8.416 4 12 4s6.5 2.916 6.5 6.5c0 4.073-4.835 8.028-6.5 9.27z" />
 </symbol>

  <!-- Tweet (botón de publicar) -->
  <symbol id="icon-feather" viewBox="0 0 24 24" fill="currentColor">
    <path d="M20 2a8.1 8.1 0 0 0-8 8v2H8v4h4v6h4v-6h4v-4h-4V8a4 4 0 0 1 4-4h2V2h-2z"/>
  </symbol>
  
</svg>

