<svg xmlns="http://www.w3.org/2000/svg" style="display:none">
  <!-- Logo -->
  <symbol id="icon-logo" viewBox="0 0 24 24" fill="currentColor">
    <path d="M21.742 21.75l-7.563-11.179 7.056-8.321h-2.456l-5.691 6.714-4.54-6.714H2.359l7.29 10.776L2.25 21.75h2.456l6.035-7.118 4.818 7.118h6.191-.008zM7.739 3.818L18.81 20.182h-2.447L5.29 3.818h2.447z"/>
  </symbol>

  <!-- Inicio -->
  <symbol id="icon-home" viewBox="0 0 24 24" fill="currentColor">
    <path d="M22.46 10.46L12 1 1.54 10.46A1 1 0 0 0 2 12h2v9a1 1 0 0 0 1 1h5v-6h4v6h5a1 1 0 0 0 1-1v-9h2a1 1 0 0 0 .66-1.73z"/>
  </symbol>

  <!-- Explorar / Buscar -->
  <symbol id="icon-search" viewBox="0 0 24 24" fill="currentColor">
    <path d="M21 20l-5.6-5.6a7 7 0 10-1.4 1.4L20 21zM5 10a5 5 0 1110 0A5 5 0 015 10z"/>
  </symbol>

  <!-- Notificaciones -->
  <symbol id="icon-bell" viewBox="0 0 24 24" fill="currentColor">
    <path d="M18 8a6 6 0 00-12 0c0 7-3 9-3 9h18s-3-2-3-9zM13.73 21a2 2 0 01-3.46 0"/>
  </symbol>

  <!-- Mensajes -->
  <symbol id="icon-mail" viewBox="0 0 24 24" fill="currentColor">
    <path d="M4 4h16a2 2 0 012 2v12a2 2 0 01-2 2H4a2 2 0 01-2-2V6a2 2 0 012-2zm8 7l8-5H4l8 5zm0 2l-8-5v10h16V8l-8 5z"/>
  </symbol>

  <!-- Guardados -->
  <symbol id="icon-bookmark" viewBox="0 0 24 24" fill="currentColor">
    <path d="M6 2a2 2 0 00-2 2v18l8-5 8 5V4a2 2 0 00-2-2H6z"/>
  </symbol>

  <!-- Perfil -->
  <symbol id="icon-user" viewBox="0 0 24 24" fill="currentColor">
    <path d="M12 12a5 5 0 100-10 5 5 0 000 10zm0 2c-5 0-9 2.24-9 5v3h18v-3c0-2.76-4-5-9-5z"/>
  </symbol>

  <!-- Más opciones -->
  <symbol id="icon-more" viewBox="0 0 24 24" fill="currentColor">
    <circle cx="12" cy="5" r="2"/>
    <circle cx="12" cy="12" r="2"/>
    <circle cx="12" cy="19" r="2"/>
  </symbol>

  <!-- Tweet (botón de publicar) -->
  <symbol id="icon-feather" viewBox="0 0 24 24" fill="currentColor">
    <path d="M20 2a8.1 8.1 0 0 0-8 8v2H8v4h4v6h4v-6h4v-4h-4V8a4 4 0 0 1 4-4h2V2h-2z"/>
  </symbol>

</svg>

